<svg xmlns="http://www.w3.org/2000/svg" width="145" height="32" viewBox="0 0 145 32">
  <path fill="#FFFFFF" fill-rule="evenodd" d="M839.878453,496 C842.090643,496 843.883978,494.209139 843.883978,492 C843.883978,489.790861 842.090643,488 839.878453,488 C837.666263,488 835.872928,489.790861 835.872928,492 C835.872928,494.209139 837.666263,496 839.878453,496 Z M843.880373,500 L831.867003,500 L831.867003,484 L843.880373,484 C846.102638,484 847.889102,482.2088 847.889102,480 C847.889102,477.7952 846.094627,476 843.880373,476 L827.865483,476 L827.863881,476 L827.861478,476 C827.678826,476 827.503384,476.0304 827.32634,476.0544 C825.363633,476.3184 823.855953,477.9744 823.855953,480 L823.855953,480.0024 L823.855953,480.004 L823.855953,503.996 L823.855953,503.9976 L823.855953,504 C823.855953,504.3576 823.918439,504.6984 824.007362,505.0288 C824.464793,506.7384 826.009323,508 827.861478,508 L827.863881,508 L827.865483,508 L843.880373,508 C846.102638,508 847.889102,506.2088 847.889102,504 C847.889102,501.7952 846.094627,500 843.880373,500 Z M919.98895,479.996 C919.98895,477.7888 921.78663,476 923.994475,476 C926.206326,476 928,477.7888 928,479.996 L928,488.0032 C928,490.2104 926.20232,492 923.994475,492 C921.782624,492 919.98895,490.2112 919.98895,488.0032 L919.98895,479.996 Z M895.955801,495.996 C895.955801,493.7888 897.753481,492 899.961326,492 C902.173177,492 903.966851,493.7888 903.966851,495.996 L903.966851,504.0032 C903.966851,506.2104 902.169171,508 899.961326,508 C897.749475,508 895.955801,506.2112 895.955801,504.0032 L895.955801,495.996 Z M902.793232,477.172 C902.067431,476.4488 901.066851,476 899.961326,476 C897.753481,476 895.955801,477.7912 895.955801,480 C895.955801,481.1032 896.40442,482.1032 897.12942,482.828 L921.161768,506.8288 C921.887569,507.552 922.888149,508 923.994475,508 C926.201519,508 928,506.2096 928,504 C928,502.8976 927.55058,501.8976 926.82558,501.1728 L902.793232,477.172 Z M855.900552,492 C855.900552,483.1632 863.072044,476 871.922652,476 C880.771657,476 887.944751,483.1616 887.944751,492 C887.944751,500.8368 880.77326,508 871.922652,508 C863.073646,508 855.900552,500.8384 855.900552,492 Z M863.911602,492 C863.911602,487.5816 867.497348,484 871.922652,484 C876.347155,484 879.933702,487.5808 879.933702,492 C879.933702,496.4184 876.347956,500 871.922652,500 C867.498149,500 863.911602,496.4192 863.911602,492 Z M815.044199,504 C815.044199,506.2088 813.250525,508 811.038674,508 C809.470912,508 808.12826,507.092 807.469751,505.7816 L807.456133,505.7888 L799.022099,488.944 L790.588066,505.7888 L790.574448,505.7816 C789.915939,507.092 788.573287,508 787.005525,508 C784.793674,508 783,506.2088 783,504 C783,503.356 783.16663,502.7568 783.436602,502.2184 L783.422983,502.2112 L795.439558,478.2112 L795.453978,478.2184 C796.111685,476.908 797.454337,476 799.022099,476 C800.589862,476 801.932514,476.908 802.590221,478.2184 L802.604641,478.2112 L814.621215,502.2112 L814.607597,502.2184 C814.877569,502.7568 815.044199,503.356 815.044199,504 Z" transform="translate(-783 -476)"/>
</svg>
