<svg xmlns="http://www.w3.org/2000/svg" width="32" height="19" viewBox="0 0 32 19">
  <path fill="#FFFFFF" fill-rule="evenodd" d="M32,49.5 C32,48.6715729 32.6683655,48 33.5005059,48 L62.4994941,48 C63.3282006,48 64,48.6657972 64,49.5 C64,50.3284271 63.3316345,51 62.4994941,51 L33.5005059,51 C32.6717994,51 32,50.3342028 32,49.5 Z M32,41.5 C32,40.6715729 32.6683655,40 33.5005059,40 L62.4994941,40 C63.3282006,40 64,40.6657972 64,41.5 C64,42.3284271 63.3316345,43 62.4994941,43 L33.5005059,43 C32.6717994,43 32,42.3342028 32,41.5 Z M32,33.5 C32,32.6715729 32.6683655,32 33.5005059,32 L62.4994941,32 C63.3282006,32 64,32.6657972 64,33.5 C64,34.3284271 63.3316345,35 62.4994941,35 L33.5005059,35 C32.6717994,35 32,34.3342028 32,33.5 Z" transform="translate(-32 -32)"/>
</svg>
