<?xml version="1.0" encoding="UTF-8"?><!DOCTYPE svg PUBLIC "-//W3C//DTD SVG 1.1//EN" "http://www.w3.org/Graphics/SVG/1.1/DTD/svg11.dtd"><svg xmlns="http://www.w3.org/2000/svg" display="none"><symbol id="logo" viewbox="0 0 145 32"><path fill-rule="evenodd" d="M56.878 20a4.003 4.003 0 0 0 4.006-4c0-2.21-1.793-4-4.006-4a4.003 4.003 0 0 0-4.005 4c0 2.21 1.793 4 4.005 4zm4.002 4H48.867V8H60.88a4 4 0 1 0 0-8H44.861c-.182 0-.358.03-.535.054-1.962.264-3.47 1.92-3.47 3.946v24c0 .358.062.698.151 1.029A3.993 3.993 0 0 0 44.861 32H60.88a4 4 0 1 0 0-8zM136.99 3.996A4.003 4.003 0 0 1 140.994 0 4 4 0 0 1 145 3.996v8.007A4.004 4.004 0 0 1 140.994 16a4.001 4.001 0 0 1-4.005-3.997V3.996zm-24.033 16A4.003 4.003 0 0 1 116.96 16a4 4 0 0 1 4.006 3.996v8.007A4.004 4.004 0 0 1 116.96 32a4.001 4.001 0 0 1-4.005-3.997v-8.007zm6.837-18.824A4.006 4.006 0 0 0 112.956 4c0 1.103.448 2.103 1.173 2.828l24.033 24A4.006 4.006 0 0 0 145 28c0-1.101-.45-2.101-1.174-2.826L119.793 1.172zM72.901 16c0-8.837 7.171-16 16.022-16 8.849 0 16.022 7.162 16.022 16 0 8.837-7.172 16-16.022 16-8.85 0-16.022-7.162-16.022-16zm8.01 0c0-4.418 3.586-8 8.012-8 4.424 0 8.01 3.58 8.01 8 0 4.418-3.585 8-8.01 8s-8.011-3.58-8.011-8zM32.045 28c0 2.209-1.793 4-4.005 4a3.993 3.993 0 0 1-3.57-2.218l-.013.007-8.434-16.845-8.434 16.845-.014-.007A3.993 3.993 0 0 1 4.006 32 4.003 4.003 0 0 1 0 28c0-.644.167-1.243.437-1.782l-.014-.007 12.017-24 .014.007C13.112.908 14.454 0 16.022 0s2.91.908 3.568 2.218l.015-.007 12.016 24-.013.007c.27.539.436 1.138.436 1.782z"/></symbol><symbol id="nav" viewbox="0 0 32 19"><path fill-rule="evenodd" d="M0 17.5c0-.828.668-1.5 1.5-1.5h29c.828 0 1.5.666 1.5 1.5 0 .828-.668 1.5-1.5 1.5h-29C.673 19 0 18.334 0 17.5zm0-8C0 8.672.668 8 1.5 8h29c.828 0 1.5.666 1.5 1.5 0 .828-.668 1.5-1.5 1.5h-29C.673 11 0 10.334 0 9.5zm0-8C0 .672.668 0 1.5 0h29c.828 0 1.5.666 1.5 1.5 0 .828-.668 1.5-1.5 1.5h-29C.673 3 0 2.334 0 1.5z"/></symbol><symbol id="point" viewbox="0 0 32 32"><circle cx="16" cy="16" r="16" fill-rule="evenodd"/></symbol></svg>