<?xml version="1.0" standalone="no"?>
<!DOCTYPE svg PUBLIC "-//W3C//DTD SVG 20010904//EN"
 "http://www.w3.org/TR/2001/REC-SVG-20010904/DTD/svg10.dtd">
<svg version="1.0" xmlns="http://www.w3.org/2000/svg" viewBox="0 0 1000.000000 1000.000000"
 preserveAspectRatio="xMidYMid meet">
<metadata>
Created by potrace 1.11, written by Peter Selinger 2001-2013
</metadata>
<g transform="translate(0.000000,1000.000000) scale(0.100000,-0.100000)"
fill="#000000" stroke="none">
<path d="M0 5000 l0 -5000 5000 0 5000 0 0 5000 0 5000 -5000 0 -5000 0 0
-5000z m5166 3779 c257 -45 485 -198 634 -424 56 -85 2846 -5667 2910 -5821
65 -159 75 -209 74 -389 0 -144 -3 -169 -27 -248 -102 -332 -343 -569 -672
-659 -104 -29 -308 -35 -416 -13 -247 50 -469 200 -608 410 -29 44 -503 982
-1053 2085 l-1000 2005 -1003 -2010 c-552 -1105 -1024 -2041 -1050 -2080 -142
-212 -371 -365 -611 -411 -118 -22 -317 -15 -423 16 -259 74 -461 237 -586
473 -57 107 -82 185 -101 310 -32 208 0 362 134 643 166 348 2774 5568 2820
5644 151 249 366 407 628 464 82 17 266 20 350 5z"/>
</g>
</svg>
